# Casa fara etaje
# Autor: Stefan-Gabriel Mirea

# vertecsi
# pamant
v -5.000000 0.000000 -5.000000
vn 0.000000 1.000000 0.000000
vt 0.006700 0.985600
v 5.000000 0.000000 -5.000000
vn 0.000000 1.000000 0.000000
vt 0.228800 0.985600
v -5.000000 0.000000 5.000000
vn 0.000000 1.000000 0.000000
vt 0.006700 0.507200
v 5.000000 0.000000 5.000000
vn 0.000000 1.000000 0.000000
vt 0.228800 0.507200
# perete spate
v 4.560000 1.850000 -3.750000
vn 0.000000 0.000000 -1.000000
vt 0.781000 0.660000
v -5.000000 1.850000 -3.750000
vn 0.000000 0.000000 -1.000000
vt 0.993300 0.660000
v 4.560000 0.000000 -3.750000
vn 0.000000 0.000000 -1.000000
vt 0.781000 0.571500
v -5.000000 0.000000 -3.750000
vn 0.000000 0.000000 -1.000000
vt 0.993300 0.571500
# perete dreapta
v 4.560000 1.850000 1.250000
vn 1.000000 0.000000 0.000000
vt 0.669900 0.660000
v 4.560000 1.850000 -3.750000
vn 1.000000 0.000000 0.000000
vt 0.781000 0.660000
v 4.560000 0.000000 1.250000
vn 1.000000 0.000000 0.000000
vt 0.669900 0.571500
v 4.560000 0.000000 -3.750000
vn 1.000000 0.000000 0.000000
vt 0.781000 0.571500
v 4.560000 4.460000 -1.250000
vn 1.000000 0.000000 0.000000
vt 0.725500 0.784900
# perete fata
v -1.360000 1.850000 1.250000
vn 0.000000 0.000000 1.000000
vt 0.538400 0.660000
v 4.560000 1.850000 1.250000
vn 0.000000 0.000000 1.000000
vt 0.669900 0.660000
v -1.360000 0.000000 1.250000
vn 0.000000 0.000000 1.000000
vt 0.538400 0.571500
v 4.560000 0.000000 1.250000
vn 0.000000 0.000000 1.000000
vt 0.669900 0.571500
# perete garaj dreapta
v -1.360000 1.850000 3.750000
vn 1.000000 0.000000 0.000000
vt 0.482900 0.660000
v -1.360000 1.850000 1.250000
vn 1.000000 0.000000 0.000000
vt 0.538400 0.660000
v -1.360000 0.000000 3.750000
vn 1.000000 0.000000 0.000000
vt 0.482900 0.571500
v -1.360000 0.000000 1.250000
vn 1.000000 0.000000 0.000000
vt 0.538400 0.571500
# perete garaj fata
v -4.397000 2.480000 3.750000
vn 0.000000 0.000000 1.000000
vt 0.415400 0.690200
v -1.963000 2.480000 3.750000
vn 0.000000 0.000000 1.000000
vt 0.469500 0.690200
v -5.000000 1.850000 3.750000
vn 0.000000 0.000000 1.000000
vt 0.402000 0.660000
v -1.360000 1.850000 3.750000
vn 0.000000 0.000000 1.000000
vt 0.482900 0.660000
v -5.000000 0.000000 3.750000
vn 0.000000 0.000000 1.000000
vt 0.402000 0.571500
v -1.360000 0.000000 3.750000
vn 0.000000 0.000000 1.000000
vt 0.482900 0.571500
# perete stanga
v -5.000000 1.850000 -3.750000
vn -1.000000 0.000000 0.000000
vt 0.235500 0.660000
v -5.000000 1.850000 3.750000
vn -1.000000 0.000000 0.000000
vt 0.402000 0.660000
v -5.000000 0.000000 -3.750000
vn -1.000000 0.000000 0.000000
vt 0.235500 0.571500
v -5.000000 0.000000 3.750000
vn -1.000000 0.000000 0.000000
vt 0.402000 0.571500
v -5.000000 4.460000 -1.250000
vn -1.000000 0.000000 0.000000
vt 0.291000 0.784900
v -5.000000 1.850000 1.250000
vn -1.000000 0.000000 0.000000
vt 0.346500 0.660000
# acoperis spate
v 4.560000 4.460000 -1.250000
vn 0.000000 0.692000 -0.722000
vt 0.235500 0.985600
v -5.000000 4.460000 -1.250000
vn 0.000000 0.692000 -0.722000
vt 0.447800 0.985600
v 4.560000 1.850000 -3.750000
vn 0.000000 0.692000 -0.722000
vt 0.235500 0.812700
v -5.000000 1.850000 -3.750000
vn 0.000000 0.692000 -0.722000
vt 0.447800 0.812700
# acoperis fata
v -5.000000 4.460000 -1.250000
vn 0.000000 0.692000 0.722000
vt 0.235500 0.985600
v 4.560000 4.460000 -1.250000
vn 0.000000 0.692000 0.722000
vt 0.447800 0.985600
v -5.000000 1.850000 1.250000
vn 0.000000 0.692000 0.722000
vt 0.235500 0.812700
v 4.560000 1.850000 1.250000
vn 0.000000 0.692000 0.722000
vt 0.447800 0.812700
v -3.860000 4.460000 -1.250000
vn 0.000000 0.692000 0.722000
vt 0.260800 0.985600
v -3.180000 3.750000 -0.570000
vn 0.000000 0.692000 0.722000
vt 0.275900 0.938600
v -1.360000 1.850000 1.250000
vn 0.000000 0.692000 0.722000
vt 0.316300 0.812700
# acoperis garaj dreapta
v -3.180000 3.750000 2.533000
vn 0.722000 0.692000 0.000000
vt 0.262500 0.985600
v -3.180000 3.750000 -0.570000
vn 0.722000 0.692000 0.000000
vt 0.331400 0.985600
v -1.963000 2.480000 3.750000
vn 0.722000 0.692000 0.000000
vt 0.235500 0.901500
v -1.360000 1.850000 3.750000
vn 0.722000 0.692000 0.000000
vt 0.235500 0.859800
v -1.360000 1.850000 1.250000
vn 0.722000 0.692000 0.000000
vt 0.291000 0.859800
# acoperis garaj fata
v -3.180000 3.750000 2.533000
vn 0.000000 0.692000 0.722000
vt 0.262500 0.985600
v -4.397000 2.480000 3.750000
vn 0.000000 0.692000 0.722000
vt 0.235500 0.901500
v -1.963000 2.480000 3.750000
vn 0.000000 0.692000 0.722000
vt 0.289500 0.901500
# acoperis garaj stanga
v -3.180000 3.750000 -0.570000
vn -0.722000 0.692000 0.000000
vt 0.235500 0.985600
v -3.180000 3.750000 2.533000
vn -0.722000 0.692000 0.000000
vt 0.304400 0.985600
v -4.397000 2.480000 3.750000
vn -0.722000 0.692000 0.000000
vt 0.331400 0.901500
v -5.000000 1.850000 1.250000
vn -0.722000 0.692000 0.000000
vt 0.275900 0.859800
v -5.000000 1.850000 3.750000
vn -0.722000 0.692000 0.000000
vt 0.331400 0.859800
# perete veranda dreapta
v 1.740000 1.850000 2.310000
vn 1.000000 0.000000 0.000000
vt 0.523300 0.985600
v 1.740000 1.850000 1.250000
vn 1.000000 0.000000 0.000000
vt 0.546900 0.985600
v 1.740000 0.000000 2.310000
vn 1.000000 0.000000 0.000000
vt 0.523300 0.897100
v 1.740000 0.000000 1.250000
vn 1.000000 0.000000 0.000000
vt 0.546900 0.897100
# perete veranda fata
v -1.360000 1.850000 2.310000
vn 0.000000 0.000000 1.000000
vt 0.454500 0.985600
v 1.740000 1.850000 2.310000
vn 0.000000 0.000000 1.000000
vt 0.523300 0.985600
v -1.360000 0.000000 2.310000
vn 0.000000 0.000000 1.000000
vt 0.454500 0.897100
v 1.740000 0.000000 2.310000
vn 0.000000 0.000000 1.000000
vt 0.523300 0.897100
# acoperis veranda dreapta
v 0.294000 2.253000 0.864000
vn 0.268000 0.963000 0.000000
vt 0.267600 0.985600
v 1.740000 1.850000 1.250000
vn 0.268000 0.963000 0.000000
vt 0.235500 0.913800
v 1.740000 1.850000 2.310000
vn 0.268000 0.963000 0.000000
vt 0.259000 0.913800
# acoperis veranda fata
v -1.746000 2.253000 0.864000
vn 0.000000 0.963000 0.268000
vt 0.235500 0.985600
v 0.294000 2.253000 0.864000
vn 0.000000 0.963000 0.268000
vt 0.280800 0.985600
v -1.360000 1.850000 2.310000
vn 0.000000 0.963000 0.268000
vt 0.244000 0.913800
v 1.740000 1.850000 2.310000
vn 0.000000 0.963000 0.268000
vt 0.312900 0.913800
# tavan veranda
v -1.360000 1.850000 2.310000
vn 0.000000 -1.000000 0.000000
vt 0.538400 0.710800
v 1.740000 1.850000 2.310000
vn 0.000000 -1.000000 0.000000
vt 0.607300 0.710800
v -1.360000 1.850000 1.250000
vn 0.000000 -1.000000 0.000000
vt 0.538400 0.660000
v 1.740000 1.850000 1.250000
vn 0.000000 -1.000000 0.000000
vt 0.607300 0.660000
# horn spate sus
v 5.000000 4.843000 -1.563000
vn 0.000000 0.000000 -1.000000
vt 0.732400 0.803200
v 4.560000 4.843000 -1.563000
vn 0.000000 0.000000 -1.000000
vt 0.732400 0.824300
v 5.000000 2.393000 -1.563000
vn 0.000000 0.000000 -1.000000
vt 0.786800 0.803200
v 4.560000 2.393000 -1.563000
vn 0.000000 0.000000 -1.000000
vt 0.786800 0.824300
# horn spate mijloc
v 5.000000 2.393000 -1.563000
vn 0.000000 0.499000 -0.866000
vt 0.786800 0.803200
v 4.560000 2.393000 -1.563000
vn 0.000000 0.499000 -0.866000
vt 0.786800 0.824300
v 5.000000 1.850000 -1.876000
vn 0.000000 0.499000 -0.866000
vt 0.800700 0.803200
v 4.560000 1.850000 -1.876000
vn 0.000000 0.499000 -0.866000
vt 0.800700 0.824300
# horn spate jos
v 5.000000 1.850000 -1.876000
vn 0.000000 0.000000 -1.000000
vt 0.800700 0.803200
v 4.560000 1.850000 -1.876000
vn 0.000000 0.000000 -1.000000
vt 0.800700 0.824300
v 5.000000 0.000000 -1.876000
vn 0.000000 0.000000 -1.000000
vt 0.841800 0.803200
v 4.560000 0.000000 -1.876000
vn 0.000000 0.000000 -1.000000
vt 0.841800 0.824300
# horn dreapta
v 5.000000 4.843000 -0.937000
vn 1.000000 0.000000 0.000000
vt 0.718500 0.803200
v 5.000000 4.843000 -1.563000
vn 1.000000 0.000000 0.000000
vt 0.732400 0.803200
v 5.000000 2.393000 -0.937000
vn 1.000000 0.000000 0.000000
vt 0.718500 0.686000
v 5.000000 2.393000 -1.563000
vn 1.000000 0.000000 0.000000
vt 0.732400 0.686000
v 5.000000 1.850000 -0.624000
vn 1.000000 0.000000 0.000000
vt 0.711600 0.660000
v 5.000000 1.850000 -1.876000
vn 1.000000 0.000000 0.000000
vt 0.739400 0.660000
v 5.000000 0.000000 -0.624000
vn 1.000000 0.000000 0.000000
vt 0.711600 0.571500
v 5.000000 0.000000 -1.876000
vn 1.000000 0.000000 0.000000
vt 0.739400 0.571500
# horn fata sus
v 4.560000 4.843000 -0.937000
vn 0.000000 0.000000 1.000000
vt 0.732400 0.803200
v 5.000000 4.843000 -0.937000
vn 0.000000 0.000000 1.000000
vt 0.732400 0.824300
v 4.560000 2.393000 -0.937000
vn 0.000000 0.000000 1.000000
vt 0.786800 0.803200
v 5.000000 2.393000 -0.937000
vn 0.000000 0.000000 1.000000
vt 0.786800 0.824300
# horn fata mijloc
v 4.560000 2.393000 -0.937000
vn 0.000000 0.499000 0.866000
vt 0.786800 0.803200
v 5.000000 2.393000 -0.937000
vn 0.000000 0.499000 0.866000
vt 0.786800 0.824300
v 4.560000 1.850000 -0.624000
vn 0.000000 0.499000 0.866000
vt 0.800700 0.803200
v 5.000000 1.850000 -0.624000
vn 0.000000 0.499000 0.866000
vt 0.800700 0.824300
# horn fata jos
v 4.560000 1.850000 -0.624000
vn 0.000000 0.000000 1.000000
vt 0.800700 0.803200
v 5.000000 1.850000 -0.624000
vn 0.000000 0.000000 1.000000
vt 0.800700 0.824300
v 4.560000 0.000000 -0.624000
vn 0.000000 0.000000 1.000000
vt 0.841800 0.803200
v 5.000000 0.000000 -0.624000
vn 0.000000 0.000000 1.000000
vt 0.841800 0.824300
# horn stanga
v 4.560000 4.843000 -1.563000
vn -1.000000 0.000000 0.000000
vt 0.718500 0.803200
v 4.560000 4.843000 -0.937000
vn -1.000000 0.000000 0.000000
vt 0.732400 0.803200
v 4.560000 4.134000 -1.563000
vn -1.000000 0.000000 0.000000
vt 0.718500 0.769300
v 4.560000 4.134000 -0.937000
vn -1.000000 0.000000 0.000000
vt 0.732400 0.769300
v 4.560000 4.460000 -1.250000
vn -1.000000 0.000000 0.000000
vt 0.725500 0.784900
# horn deasupra
v 4.560000 4.843000 -1.563000
vn 0.000000 1.000000 0.000000
vt 0.732400 0.824300
v 5.000000 4.843000 -1.563000
vn 0.000000 1.000000 0.000000
vt 0.732400 0.803200
v 4.560000 4.843000 -0.937000
vn 0.000000 1.000000 0.000000
vt 0.718500 0.824300
v 5.000000 4.843000 -0.937000
vn 0.000000 1.000000 0.000000
vt 0.718500 0.803200
# peretele din dreapta pentru fereastra de la pod
v 1.059000 3.667000 0.253000
vn 1.000000 0.000000 0.000000
vt 0.476800 0.857600
v 1.059000 3.667000 -0.491000
vn 1.000000 0.000000 0.000000
vt 0.493400 0.857600
v 1.059000 2.890000 0.253000
vn 1.000000 0.000000 0.000000
vt 0.476800 0.820400
# peretele din fata pentru fereastra de la pod
v 0.556000 4.193000 0.253000
vn 0.000000 0.000000 1.000000
vt 0.465600 0.882800
v 0.053000 3.667000 0.253000
vn 0.000000 0.000000 1.000000
vt 0.454500 0.857600
v 1.059000 3.667000 0.253000
vn 0.000000 0.000000 1.000000
vt 0.476800 0.857600
v 0.053000 2.890000 0.253000
vn 0.000000 0.000000 1.000000
vt 0.454500 0.820400
v 1.059000 2.890000 0.253000
vn 0.000000 0.000000 1.000000
vt 0.476800 0.820400
# peretele din stanga pentru fereastra de la pod
v 0.053000 3.667000 -0.491000
vn -1.000000 0.000000 0.000000
vt 0.493400 0.857600
v 0.053000 3.667000 0.253000
vn -1.000000 0.000000 0.000000
vt 0.476800 0.857600
v 0.053000 2.890000 0.253000
vn -1.000000 0.000000 0.000000
vt 0.476800 0.820400
# acoperis dreapta pentru fereastra de la pod
v 0.556000 4.193000 0.253000
vn 0.722000 0.692000 0.000000
vt 0.235500 0.985600
v 0.556000 4.193000 -0.994000
vn 0.722000 0.692000 0.000000
vt 0.263200 0.985600
v 1.059000 3.667000 0.253000
vn 0.722000 0.692000 0.000000
vt 0.235500 0.950800
v 1.059000 3.667000 -0.491000
vn 0.722000 0.692000 0.000000
vt 0.252000 0.950800
# acoperis stanga pentru fereastra de la pod
v 0.556000 4.193000 -0.994000
vn -0.722000 0.692000 0.000000
vt 0.235500 0.985600
v 0.556000 4.193000 0.253000
vn -0.722000 0.692000 0.000000
vt 0.263200 0.985600
v 0.053000 3.667000 -0.491000
vn -0.722000 0.692000 0.000000
vt 0.246600 0.950800
v 0.053000 3.667000 0.253000
vn -0.722000 0.692000 0.000000
vt 0.263200 0.950800

# indecsi
f 2/2/2 1/1/1 3/3/3
f 2/2/2 3/3/3 4/4/4
f 6/6/6 5/5/5 7/7/7
f 6/6/6 7/7/7 8/8/8
f 10/10/10 9/9/9 11/11/11
f 10/10/10 11/11/11 12/12/12
f 9/9/9 10/10/10 13/13/13
f 15/15/15 14/14/14 16/16/16
f 15/15/15 16/16/16 17/17/17
f 19/19/19 18/18/18 20/20/20
f 19/19/19 20/20/20 21/21/21
f 23/23/23 22/22/22 24/24/24
f 23/23/23 24/24/24 25/25/25
f 25/25/25 24/24/24 26/26/26
f 25/25/25 26/26/26 27/27/27
f 29/29/29 28/28/28 30/30/30
f 29/29/29 30/30/30 31/31/31
f 32/32/32 28/28/28 33/33/33
f 35/35/35 34/34/34 36/36/36
f 35/35/35 36/36/36 37/37/37
f 42/42/42 38/38/38 40/40/40
f 42/42/42 40/40/40 43/43/43
f 39/39/39 42/42/42 44/44/44
f 39/39/39 44/44/44 41/41/41
f 46/46/46 45/45/45 49/49/49
f 49/49/49 45/45/45 48/48/48
f 48/48/48 45/45/45 47/47/47
f 50/50/50 51/51/51 52/52/52
f 54/54/54 53/53/53 56/56/56
f 57/57/57 54/54/54 56/56/56
f 55/55/55 54/54/54 57/57/57
f 59/59/59 58/58/58 60/60/60
f 59/59/59 60/60/60 61/61/61
f 63/63/63 62/62/62 64/64/64
f 63/63/63 64/64/64 65/65/65
f 67/67/67 66/66/66 68/68/68
f 70/70/70 69/69/69 71/71/71
f 70/70/70 71/71/71 72/72/72
f 74/74/74 73/73/73 75/75/75
f 74/74/74 75/75/75 76/76/76
f 78/78/78 77/77/77 79/79/79
f 78/78/78 79/79/79 80/80/80
f 82/82/82 81/81/81 83/83/83
f 82/82/82 83/83/83 84/84/84
f 86/86/86 85/85/85 87/87/87
f 86/86/86 87/87/87 88/88/88
f 90/90/90 89/89/89 91/91/91
f 90/90/90 91/91/91 92/92/92
f 92/92/92 91/91/91 93/93/93
f 92/92/92 93/93/93 94/94/94
f 94/94/94 93/93/93 95/95/95
f 94/94/94 95/95/95 96/96/96
f 98/98/98 97/97/97 99/99/99
f 98/98/98 99/99/99 100/100/100
f 102/102/102 101/101/101 103/103/103
f 102/102/102 103/103/103 104/104/104
f 106/106/106 105/105/105 107/107/107
f 106/106/106 107/107/107 108/108/108
f 110/110/110 109/109/109 113/113/113
f 113/113/113 109/109/109 111/111/111
f 112/112/112 110/110/110 113/113/113
f 115/115/115 114/114/114 116/116/116
f 115/115/115 116/116/116 117/117/117
f 119/119/119 118/118/118 120/120/120
f 121/121/121 122/122/122 123/123/123
f 123/123/123 122/122/122 124/124/124
f 123/123/123 124/124/124 125/125/125
f 127/127/127 126/126/126 128/128/128
f 130/130/130 129/129/129 131/131/131
f 130/130/130 131/131/131 132/132/132
f 134/134/134 133/133/133 135/135/135
f 134/134/134 135/135/135 136/136/136
