# Casa cu etaj
# Autor: Stefan-Gabriel Mirea

# vertecsi
# pamant
v -5.000000 0.000000 -5.000000
vn 0.000000 1.000000 0.000000
vt 0.006700 0.492800
v 5.000000 0.000000 -5.000000
vn 0.000000 1.000000 0.000000
vt 0.228800 0.492800
v -5.000000 0.000000 5.000000
vn 0.000000 1.000000 0.000000
vt 0.006700 0.014400
v 5.000000 0.000000 5.000000
vn 0.000000 1.000000 0.000000
vt 0.228800 0.014400
# perete garaj spate
v -2.600000 1.850000 -2.977000
vn 0.000000 0.000000 -1.000000
vt 0.546000 0.367700
v -5.000000 1.850000 -2.977000
vn 0.000000 0.000000 -1.000000
vt 0.599300 0.367700
v -2.600000 0.000000 -2.977000
vn 0.000000 0.000000 -1.000000
vt 0.546000 0.279200
v -5.000000 0.000000 -2.977000
vn 0.000000 0.000000 -1.000000
vt 0.599300 0.279200
# perete spate
v 5.000000 3.700000 -2.977000
vn 0.000000 0.000000 -1.000000
vt 0.377200 0.456200
v -2.600000 3.700000 -2.977000
vn 0.000000 0.000000 -1.000000
vt 0.546000 0.456200
v 5.000000 0.000000 -2.977000
vn 0.000000 0.000000 -1.000000
vt 0.377200 0.279200
v -2.600000 0.000000 -2.977000
vn 0.000000 0.000000 -1.000000
vt 0.546000 0.279200
# perete dreapta
v 5.000000 5.810000 -0.477000
vn 1.000000 0.000000 0.000000
vt 0.321700 0.557200
v 5.000000 3.700000 2.023000
vn 1.000000 0.000000 0.000000
vt 0.266100 0.456200
v 5.000000 3.700000 -2.977000
vn 1.000000 0.000000 0.000000
vt 0.377200 0.456200
v 5.000000 2.655000 2.023000
vn 1.000000 0.000000 0.000000
vt 0.266100 0.406200
v 5.000000 1.850000 2.977000
vn 1.000000 0.000000 0.000000
vt 0.244900 0.367700
v 5.000000 1.850000 2.023000
vn 1.000000 0.000000 0.000000
vt 0.266100 0.367700
v 5.000000 0.000000 2.023000
vn 1.000000 0.000000 0.000000
vt 0.266100 0.279200
v 5.000000 0.000000 -2.977000
vn 1.000000 0.000000 0.000000
vt 0.377200 0.279200
# perete fata dreapta sus
v 3.619000 3.700000 2.023000
vn 0.000000 0.000000 1.000000
vt 0.235500 0.456200
v 5.000000 3.700000 2.023000
vn 0.000000 0.000000 1.000000
vt 0.266100 0.456200
v 3.619000 2.655000 2.023000
vn 0.000000 0.000000 1.000000
vt 0.235500 0.406200
v 5.000000 2.655000 2.023000
vn 0.000000 0.000000 1.000000
vt 0.266100 0.406200
# perete fata dreapta jos
v 3.619000 1.850000 2.023000
vn 0.000000 0.000000 1.000000
vt 0.962600 0.367700
v 5.000000 1.850000 2.023000
vn 0.000000 0.000000 1.000000
vt 0.993300 0.367700
v 3.619000 0.000000 2.023000
vn 0.000000 0.000000 1.000000
vt 0.962600 0.279200
v 5.000000 0.000000 2.023000
vn 0.000000 0.000000 1.000000
vt 0.993300 0.279200
# perete iesitura dreapta sus
v 3.619000 3.700000 2.553000
vn 1.000000 0.000000 0.000000
vt 0.446700 0.163900
v 3.619000 3.700000 2.023000
vn 1.000000 0.000000 0.000000
vt 0.434900 0.163900
v 3.619000 2.207000 2.553000
vn 1.000000 0.000000 0.000000
vt 0.446700 0.092400
v 3.619000 2.655000 2.023000
vn 1.000000 0.000000 0.000000
vt 0.434900 0.113900
# perete iesitura dreapta jos
v 3.619000 1.850000 2.553000
vn 1.000000 0.000000 0.000000
vt 0.906200 0.367700
v 3.619000 1.850000 2.023000
vn 1.000000 0.000000 0.000000
vt 0.894500 0.367700
v 3.619000 0.000000 2.553000
vn 1.000000 0.000000 0.000000
vt 0.906200 0.279200
v 3.619000 0.000000 2.023000
vn 1.000000 0.000000 0.000000
vt 0.894500 0.279200
# perete iesitura fata sus
v 2.500000 4.610000 2.553000
vn 0.000000 0.000000 1.000000
vt 0.471600 0.207400
v 1.381000 3.700000 2.553000
vn 0.000000 0.000000 1.000000
vt 0.446700 0.163900
v 3.619000 3.700000 2.553000
vn 0.000000 0.000000 1.000000
vt 0.496400 0.163900
v 1.381000 2.207000 2.553000
vn 0.000000 0.000000 1.000000
vt 0.446700 0.092400
v 3.619000 2.207000 2.553000
vn 0.000000 0.000000 1.000000
vt 0.496400 0.092400
# perete iesitura fata jos
v 1.381000 1.850000 2.553000
vn 0.000000 0.000000 1.000000
vt 0.906200 0.367700
v 3.619000 1.850000 2.553000
vn 0.000000 0.000000 1.000000
vt 0.956000 0.367700
v 1.381000 0.000000 2.553000
vn 0.000000 0.000000 1.000000
vt 0.906200 0.279200
v 3.619000 0.000000 2.553000
vn 0.000000 0.000000 1.000000
vt 0.956000 0.279200
# perete iesitura stanga sus
v 1.381000 3.700000 2.023000
vn -1.000000 0.000000 0.000000
vt 0.434900 0.163900
v 1.381000 3.700000 2.553000
vn -1.000000 0.000000 0.000000
vt 0.446700 0.163900
v 1.381000 2.655000 2.023000
vn -1.000000 0.000000 0.000000
vt 0.434900 0.113900
v 1.381000 2.207000 2.553000
vn -1.000000 0.000000 0.000000
vt 0.446700 0.092400
# perete iesitura stanga jos
v 1.381000 1.850000 2.023000
vn -1.000000 0.000000 0.000000
vt 0.894500 0.367700
v 1.381000 1.850000 2.553000
vn -1.000000 0.000000 0.000000
vt 0.906200 0.367700
v 1.381000 0.000000 2.023000
vn -1.000000 0.000000 0.000000
vt 0.894500 0.279200
v 1.381000 0.000000 2.553000
vn -1.000000 0.000000 0.000000
vt 0.906200 0.279200
# perete fata stanga sus
v -1.300000 5.601000 2.023000
vn 0.000000 0.000000 1.000000
vt 0.375400 0.254900
v -2.600000 4.505000 2.023000
vn 0.000000 0.000000 1.000000
vt 0.346500 0.202400
v 0.000000 4.505000 2.023000
vn 0.000000 0.000000 1.000000
vt 0.404300 0.202400
v 0.000000 3.700000 2.023000
vn 0.000000 0.000000 1.000000
vt 0.404300 0.163900
v 1.381000 3.700000 2.023000
vn 0.000000 0.000000 1.000000
vt 0.434900 0.163900
v -2.600000 2.655000 2.023000
vn 0.000000 0.000000 1.000000
vt 0.346500 0.113900
v 1.381000 2.655000 2.023000
vn 0.000000 0.000000 1.000000
vt 0.434900 0.113900
# perete fata stanga jos
v -1.360000 1.850000 2.023000
vn 0.000000 0.000000 1.000000
vt 0.833600 0.367700
v 1.381000 1.850000 2.023000
vn 0.000000 0.000000 1.000000
vt 0.894500 0.367700
v -1.360000 0.000000 2.023000
vn 0.000000 0.000000 1.000000
vt 0.833600 0.279200
v 1.381000 0.000000 2.023000
vn 0.000000 0.000000 1.000000
vt 0.894500 0.279200
# perete parte inalta dreapta
v 0.000000 4.505000 2.023000
vn 1.000000 0.000000 0.000000
vt 0.404300 0.202400
v 0.000000 4.505000 1.070000
vn 1.000000 0.000000 0.000000
vt 0.425400 0.202400
v 0.000000 3.700000 2.023000
vn 1.000000 0.000000 0.000000
vt 0.404300 0.163900
# perete stanga
v -2.600000 5.810000 -0.477000
vn -1.000000 0.000000 0.000000
vt 0.291000 0.264800
v -2.600000 4.505000 1.070000
vn -1.000000 0.000000 0.000000
vt 0.325300 0.202400
v -2.600000 4.505000 2.023000
vn -1.000000 0.000000 0.000000
vt 0.346500 0.202400
v -2.600000 4.362000 0.000000
vn -1.000000 0.000000 0.000000
vt 0.301600 0.195600
v -2.600000 3.700000 -2.977000
vn -1.000000 0.000000 0.000000
vt 0.235500 0.163900
v -2.600000 2.655000 2.023000
vn -1.000000 0.000000 0.000000
vt 0.346500 0.113900
v -2.600000 1.850000 -2.977000
vn -1.000000 0.000000 0.000000
vt 0.235500 0.075300
# perete garaj dreapta
v -1.360000 1.850000 2.977000
vn 1.000000 0.000000 0.000000
vt 0.812400 0.367700
v -1.360000 1.850000 2.023000
vn 1.000000 0.000000 0.000000
vt 0.833600 0.367700
v -1.360000 0.000000 2.977000
vn 1.000000 0.000000 0.000000
vt 0.812400 0.279200
v -1.360000 0.000000 2.023000
vn 1.000000 0.000000 0.000000
vt 0.833600 0.279200
# perete garaj fata
v -5.000000 1.850000 2.977000
vn 0.000000 0.000000 1.000000
vt 0.731600 0.367700
v -1.360000 1.850000 2.977000
vn 0.000000 0.000000 1.000000
vt 0.812400 0.367700
v -5.000000 0.000000 2.977000
vn 0.000000 0.000000 1.000000
vt 0.731600 0.279200
v -1.360000 0.000000 2.977000
vn 0.000000 0.000000 1.000000
vt 0.812400 0.279200
# perete garaj stanga
v -5.000000 4.362000 0.000000
vn -1.000000 0.000000 0.000000
vt 0.665400 0.487900
v -5.000000 1.850000 -2.977000
vn -1.000000 0.000000 0.000000
vt 0.599300 0.367700
v -5.000000 1.850000 2.977000
vn -1.000000 0.000000 0.000000
vt 0.731600 0.367700
v -5.000000 0.000000 -2.977000
vn -1.000000 0.000000 0.000000
vt 0.599300 0.279200
v -5.000000 0.000000 2.977000
vn -1.000000 0.000000 0.000000
vt 0.731600 0.279200
# acoperis spate
v 5.000000 5.810000 -0.477000
vn 0.000000 0.764000 -0.645000
vt 0.235500 0.985600
v -2.600000 5.810000 -0.477000
vn 0.000000 0.764000 -0.645000
vt 0.404300 0.985600
v 5.000000 3.700000 -2.977000
vn 0.000000 0.764000 -0.645000
vt 0.235500 0.829100
v -2.600000 3.700000 -2.977000
vn 0.000000 0.764000 -0.645000
vt 0.404300 0.829100
# acoperis fata
v -2.600000 5.810000 -0.477000
vn 0.000000 0.764000 0.645000
vt 0.235500 0.985600
v 5.000000 5.810000 -0.477000
vn 0.000000 0.764000 0.645000
vt 0.404300 0.985600
v -1.300000 5.601000 -0.230000
vn 0.000000 0.764000 0.645000
vt 0.264300 0.970200
v 2.500000 4.610000 0.945000
vn 0.000000 0.764000 0.645000
vt 0.348700 0.896600
v -2.600000 4.505000 1.070000
vn 0.000000 0.764000 0.645000
vt 0.235500 0.888800
v 0.000000 4.505000 1.070000
vn 0.000000 0.764000 0.645000
vt 0.293200 0.888800
v 0.000000 3.700000 2.023000
vn 0.000000 0.764000 0.645000
vt 0.293200 0.829100
v 1.381000 3.700000 2.023000
vn 0.000000 0.764000 0.645000
vt 0.323900 0.829100
v 3.619000 3.700000 2.023000
vn 0.000000 0.764000 0.645000
vt 0.373600 0.829100
v 5.000000 3.700000 2.023000
vn 0.000000 0.764000 0.645000
vt 0.404300 0.829100
# acoperis iesitura dreapta
v 2.500000 4.610000 2.553000
vn 0.645000 0.764000 0.000000
vt 0.235500 0.985600
v 2.500000 4.610000 0.945000
vn 0.645000 0.764000 0.000000
vt 0.271200 0.985600
v 3.619000 3.700000 2.553000
vn 0.645000 0.764000 0.000000
vt 0.235500 0.916600
v 3.619000 3.700000 2.023000
vn 0.645000 0.764000 0.000000
vt 0.247200 0.916600
# acoperis iesitura stanga
v 2.500000 4.610000 0.945000
vn -0.645000 0.764000 0.000000
vt 0.235500 0.985600
v 2.500000 4.610000 2.553000
vn -0.645000 0.764000 0.000000
vt 0.271200 0.985600
v 1.381000 3.700000 2.023000
vn -0.645000 0.764000 0.000000
vt 0.259400 0.916600
v 1.381000 3.700000 2.553000
vn -0.645000 0.764000 0.000000
vt 0.271200 0.916600
# acoperis parte inalta dreapta
v -1.300000 5.601000 2.023000
vn 0.645000 0.764000 0.000000
vt 0.235500 0.985600
v -1.300000 5.601000 -0.230000
vn 0.645000 0.764000 0.000000
vt 0.285500 0.985600
v 0.000000 4.505000 2.023000
vn 0.645000 0.764000 0.000000
vt 0.235500 0.904300
v 0.000000 4.505000 1.070000
vn 0.645000 0.764000 0.000000
vt 0.256600 0.904300
# acoperis parte inalta stanga
v -1.300000 5.601000 -0.230000
vn -0.645000 0.764000 0.000000
vt 0.235500 0.985600
v -1.300000 5.601000 2.023000
vn -0.645000 0.764000 0.000000
vt 0.285500 0.985600
v -2.600000 4.505000 1.070000
vn -0.645000 0.764000 0.000000
vt 0.264300 0.904300
v -2.600000 4.505000 2.023000
vn -0.645000 0.764000 0.000000
vt 0.285500 0.904300
# acoperis mijloc
v -1.360000 2.655000 2.023000
vn 0.000000 0.764000 0.645000
vt 0.235500 0.985600
v 1.381000 2.655000 2.023000
vn 0.000000 0.764000 0.645000
vt 0.296300 0.985600
v 3.619000 2.655000 2.023000
vn 0.000000 0.764000 0.645000
vt 0.346000 0.985600
v 5.000000 2.655000 2.023000
vn 0.000000 0.764000 0.645000
vt 0.376700 0.985600
v 1.381000 2.207000 2.553000
vn 0.000000 0.764000 0.645000
vt 0.296300 0.952500
v 3.619000 2.207000 2.553000
vn 0.000000 0.764000 0.645000
vt 0.346000 0.952500
v -1.360000 1.850000 2.977000
vn 0.000000 0.764000 0.645000
vt 0.235500 0.925900
v 5.000000 1.850000 2.977000
vn 0.000000 0.764000 0.645000
vt 0.376700 0.925900
# tavan fata
v -1.360000 1.850000 2.977000
vn 0.000000 -1.000000 0.000000
vt 0.235500 0.061000
v 5.000000 1.850000 2.977000
vn 0.000000 -1.000000 0.000000
vt 0.376700 0.061000
v 1.381000 1.850000 2.553000
vn 0.000000 -1.000000 0.000000
vt 0.296300 0.040700
v 3.619000 1.850000 2.553000
vn 0.000000 -1.000000 0.000000
vt 0.346000 0.040700
v -1.360000 1.850000 2.023000
vn 0.000000 -1.000000 0.000000
vt 0.235500 0.015400
v 1.381000 1.850000 2.023000
vn 0.000000 -1.000000 0.000000
vt 0.296300 0.015400
v 3.619000 1.850000 2.023000
vn 0.000000 -1.000000 0.000000
vt 0.346000 0.015400
v 5.000000 1.850000 2.023000
vn 0.000000 -1.000000 0.000000
vt 0.376700 0.015400
# acoperis garaj fata
v -5.000000 4.362000 0.000000
vn 0.000000 0.764000 0.645000
vt 0.235500 0.985600
v -2.600000 4.362000 0.000000
vn 0.000000 0.764000 0.645000
vt 0.288800 0.985600
v -2.600000 2.655000 2.023000
vn 0.000000 0.764000 0.645000
vt 0.288800 0.859000
v -1.360000 2.655000 2.023000
vn 0.000000 0.764000 0.645000
vt 0.316300 0.859000
v -5.000000 1.850000 2.977000
vn 0.000000 0.764000 0.645000
vt 0.235500 0.799300
v -1.360000 1.850000 2.977000
vn 0.000000 0.764000 0.645000
vt 0.316300 0.799300
# acoperis garaj spate
v -2.600000 4.362000 0.000000
vn 0.000000 0.764000 -0.645000
vt 0.235500 0.985600
v -5.000000 4.362000 0.000000
vn 0.000000 0.764000 -0.645000
vt 0.288800 0.985600
v -2.600000 1.850000 -2.977000
vn 0.000000 0.764000 -0.645000
vt 0.235500 0.799300
v -5.000000 1.850000 -2.977000
vn 0.000000 0.764000 -0.645000
vt 0.288800 0.799300
# horn1 spate
v 3.072000 6.290000 -0.477000
vn 0.000000 0.000000 -1.000000
vt 0.503100 0.141600
v 2.632000 6.290000 -0.477000
vn 0.000000 0.000000 -1.000000
vt 0.512900 0.141600
v 3.072000 5.810000 -0.477000
vn 0.000000 0.000000 -1.000000
vt 0.503100 0.118600
v 2.632000 5.810000 -0.477000
vn 0.000000 0.000000 -1.000000
vt 0.512900 0.118600
# horn1 dreapta
v 3.072000 6.290000 0.148000
vn 1.000000 0.000000 0.000000
vt 0.512900 0.141600
v 3.072000 6.290000 -0.477000
vn 1.000000 0.000000 0.000000
vt 0.526700 0.141600
v 3.072000 5.282000 0.148000
vn 1.000000 0.000000 0.000000
vt 0.512900 0.093400
v 3.072000 5.810000 -0.477000
vn 1.000000 0.000000 0.000000
vt 0.526700 0.118600
# horn1 fata
v 2.632000 6.290000 0.148000
vn 0.000000 0.000000 1.000000
vt 0.503100 0.141600
v 3.072000 6.290000 0.148000
vn 0.000000 0.000000 1.000000
vt 0.512900 0.141600
v 2.632000 5.282000 0.148000
vn 0.000000 0.000000 1.000000
vt 0.503100 0.093400
v 3.072000 5.282000 0.148000
vn 0.000000 0.000000 1.000000
vt 0.512900 0.093400
# horn1 stanga
v 2.632000 6.290000 -0.477000
vn -1.000000 0.000000 0.000000
vt 0.526700 0.141600
v 2.632000 6.290000 0.148000
vn -1.000000 0.000000 0.000000
vt 0.512900 0.141600
v 2.632000 5.810000 -0.477000
vn -1.000000 0.000000 0.000000
vt 0.526700 0.118600
v 2.632000 5.282000 0.148000
vn -1.000000 0.000000 0.000000
vt 0.512900 0.093400
# horn1 deasupra
v 2.632000 6.290000 -0.477000
vn 0.000000 1.000000 0.000000
vt 0.503100 0.171500
v 3.072000 6.290000 -0.477000
vn 0.000000 1.000000 0.000000
vt 0.512900 0.171500
v 2.632000 6.290000 0.148000
vn 0.000000 1.000000 0.000000
vt 0.503100 0.141600
v 3.072000 6.290000 0.148000
vn 0.000000 1.000000 0.000000
vt 0.512900 0.141600
# horn2 spate
v -3.543000 3.865000 1.583000
vn 0.000000 0.000000 -1.000000
vt 0.503100 0.243800
v -4.486000 3.865000 1.583000
vn 0.000000 0.000000 -1.000000
vt 0.524000 0.243800
v -3.543000 3.026000 1.583000
vn 0.000000 0.000000 -1.000000
vt 0.503100 0.203600
v -4.486000 3.026000 1.583000
vn 0.000000 0.000000 -1.000000
vt 0.524000 0.203600
# horn2 dreapta
v -3.543000 3.865000 2.023000
vn 1.000000 0.000000 0.000000
vt 0.524000 0.243800
v -3.543000 3.865000 1.583000
vn 1.000000 0.000000 0.000000
vt 0.533800 0.243800
v -3.543000 2.654000 2.023000
vn 1.000000 0.000000 0.000000
vt 0.524000 0.185900
v -3.543000 3.026000 1.583000
vn 1.000000 0.000000 0.000000
vt 0.533800 0.203600
# horn2 fata
v -4.486000 3.865000 2.023000
vn 0.000000 0.000000 1.000000
vt 0.503100 0.243800
v -3.543000 3.865000 2.023000
vn 0.000000 0.000000 1.000000
vt 0.524000 0.243800
v -4.486000 2.654000 2.023000
vn 0.000000 0.000000 1.000000
vt 0.503100 0.185900
v -3.543000 2.654000 2.023000
vn 0.000000 0.000000 1.000000
vt 0.524000 0.185900
# horn2 stanga
v -4.486000 3.865000 1.583000
vn -1.000000 0.000000 0.000000
vt 0.533800 0.243800
v -4.486000 3.865000 2.023000
vn -1.000000 0.000000 0.000000
vt 0.524000 0.243800
v -4.486000 3.026000 1.583000
vn -1.000000 0.000000 0.000000
vt 0.533800 0.203600
v -4.486000 2.654000 2.023000
vn -1.000000 0.000000 0.000000
vt 0.524000 0.185900
# horn2 deasupra
v -4.486000 3.865000 1.583000
vn 0.000000 1.000000 0.000000
vt 0.503100 0.264800
v -3.543000 3.865000 1.583000
vn 0.000000 1.000000 0.000000
vt 0.524000 0.264800
v -4.486000 3.865000 2.023000
vn 0.000000 1.000000 0.000000
vt 0.503100 0.243800
v -3.543000 3.865000 2.023000
vn 0.000000 1.000000 0.000000
vt 0.524000 0.243800

# indecsi
f 2/2/2 1/1/1 3/3/3
f 2/2/2 3/3/3 4/4/4
f 6/6/6 5/5/5 7/7/7
f 6/6/6 7/7/7 8/8/8
f 10/10/10 9/9/9 11/11/11
f 10/10/10 11/11/11 12/12/12
f 13/13/13 14/14/14 15/15/15
f 15/15/15 14/14/14 19/19/19
f 18/18/18 16/16/16 17/17/17
f 20/20/20 15/15/15 19/19/19
f 22/22/22 21/21/21 23/23/23
f 22/22/22 23/23/23 24/24/24
f 26/26/26 25/25/25 27/27/27
f 26/26/26 27/27/27 28/28/28
f 30/30/30 29/29/29 31/31/31
f 30/30/30 31/31/31 32/32/32
f 34/34/34 33/33/33 35/35/35
f 34/34/34 35/35/35 36/36/36
f 37/37/37 38/38/38 39/39/39
f 39/39/39 38/38/38 40/40/40
f 39/39/39 40/40/40 41/41/41
f 43/43/43 42/42/42 44/44/44
f 43/43/43 44/44/44 45/45/45
f 47/47/47 46/46/46 48/48/48
f 47/47/47 48/48/48 49/49/49
f 51/51/51 50/50/50 52/52/52
f 51/51/51 52/52/52 53/53/53
f 56/56/56 54/54/54 55/55/55
f 56/56/56 55/55/55 57/57/57
f 57/57/57 55/55/55 59/59/59
f 58/58/58 57/57/57 60/60/60
f 60/60/60 57/57/57 59/59/59
f 62/62/62 61/61/61 63/63/63
f 62/62/62 63/63/63 64/64/64
f 66/66/66 65/65/65 67/67/67
f 69/69/69 68/68/68 71/71/71
f 71/71/71 68/68/68 72/72/72
f 70/70/70 69/69/69 73/73/73
f 73/73/73 69/69/69 71/71/71
f 74/74/74 71/71/71 72/72/72
f 76/76/76 75/75/75 77/77/77
f 76/76/76 77/77/77 78/78/78
f 80/80/80 79/79/79 81/81/81
f 80/80/80 81/81/81 82/82/82
f 83/83/83 84/84/84 85/85/85
f 85/85/85 84/84/84 86/86/86
f 85/85/85 86/86/86 87/87/87
f 89/89/89 88/88/88 90/90/90
f 89/89/89 90/90/90 91/91/91
f 93/93/93 92/92/92 94/94/94
f 95/95/95 93/93/93 94/94/94
f 101/101/101 93/93/93 95/95/95
f 101/101/101 95/95/95 100/100/100
f 99/99/99 95/95/95 97/97/97
f 99/99/99 97/97/97 98/98/98
f 95/95/95 94/94/94 97/97/97
f 94/94/94 92/92/92 96/96/96
f 103/103/103 102/102/102 104/104/104
f 103/103/103 104/104/104 105/105/105
f 107/107/107 106/106/106 108/108/108
f 107/107/107 108/108/108 109/109/109
f 111/111/111 110/110/110 112/112/112
f 111/111/111 112/112/112 113/113/113
f 115/115/115 114/114/114 116/116/116
f 115/115/115 116/116/116 117/117/117
f 119/119/119 118/118/118 122/122/122
f 122/122/122 118/118/118 124/124/124
f 123/123/123 122/122/122 124/124/124
f 121/121/121 120/120/120 123/123/123
f 125/125/125 121/121/121 123/123/123
f 125/125/125 123/123/123 124/124/124
f 127/127/127 126/126/126 128/128/128
f 129/129/129 127/127/127 128/128/128
f 128/128/128 126/126/126 130/130/130
f 131/131/131 128/128/128 130/130/130
f 133/133/133 127/127/127 129/129/129
f 133/133/133 129/129/129 132/132/132
f 135/135/135 134/134/134 136/136/136
f 136/136/136 134/134/134 138/138/138
f 137/137/137 136/136/136 139/139/139
f 139/139/139 136/136/136 138/138/138
f 141/141/141 140/140/140 142/142/142
f 141/141/141 142/142/142 143/143/143
f 145/145/145 144/144/144 146/146/146
f 145/145/145 146/146/146 147/147/147
f 149/149/149 148/148/148 150/150/150
f 149/149/149 150/150/150 151/151/151
f 153/153/153 152/152/152 154/154/154
f 153/153/153 154/154/154 155/155/155
f 157/157/157 156/156/156 158/158/158
f 157/157/157 158/158/158 159/159/159
f 161/161/161 160/160/160 162/162/162
f 161/161/161 162/162/162 163/163/163
f 165/165/165 164/164/164 166/166/166
f 165/165/165 166/166/166 167/167/167
f 169/169/169 168/168/168 170/170/170
f 169/169/169 170/170/170 171/171/171
f 173/173/173 172/172/172 174/174/174
f 173/173/173 174/174/174 175/175/175
f 177/177/177 176/176/176 178/178/178
f 177/177/177 178/178/178 179/179/179
f 181/181/181 180/180/180 182/182/182
f 181/181/181 182/182/182 183/183/183
